<svg xmlns="http://www.w3.org/2000/svg" xml:space="preserve" viewBox="0 0 2602.3 192.42"><path fill="gray" d="M-289.02 1413.6c-2.048 0-2.9431.8957-2.9431 2.0477 0 .64.25627 1.5358 1.1523 2.3038l10.438 10.624h63.654l-12.013-12.416c-1.664-1.664-3.7114-2.5598-6.6554-2.5598zm168.19 0c-2.816 0-4.8635.8958-6.6555 2.5598l-12.477 12.416h17.12l10.717-10.752c.768-.768 1.0245-1.5366 1.0245-2.0486 0-1.28-1.0245-2.1753-2.4325-2.1753zm50.311 0c-13.926 0-25.255 5.6803-32.627 14.975h122.1c2.304 0 3.4568-1.1516 3.4568-3.4556l-.000175-8.1926c0-2.176-1.1524-3.3272-3.4564-3.3272zm149.51 0c-13.926 0-25.255 5.6803-32.626 14.975h119.79c2.304 0 3.4568-1.1516 3.4568-3.4556l-.00017-8.1926c0-2.176-1.1524-3.3272-3.4564-3.3272zm103.05 0c-1.664 0-2.4324.5111-2.4324 1.6631l.00068 11.904c0 1.024.76755 1.4079 2.4316 1.4079h125.57c1.664 0 2.4327-.3839 2.4327-1.4079l-.00068-11.904c0-1.152-.76782-1.6631-2.4318-1.6631zm174.73 0c-14.051 0-25.449 5.6424-32.832 14.975h128.37c-7.4007-9.2766-18.774-14.975-32.814-14.975zm124.42 0c-2.304 0-3.4556 1.1512-3.4556 3.3272l-.00015 11.648h141.14c-3.4517-9.1194-13.39-14.975-25.814-14.975zm166.92 0c-2.176 0-3.3287 1.1512-3.3287 3.3272l-.00014 11.648h50.816l.00015-11.648c0-2.176-1.1517-3.3272-3.3277-3.3272zm106.25 0c-13.926 0-25.255 5.6803-32.627 14.975h122.1c2.304 0 3.4558-1.1516 3.4558-3.4556l-.00018-8.1926c0-2.176-1.1515-3.3272-3.4555-3.3272zm113.16 0c-2.304 0-3.4556 1.1512-3.4556 3.3272l-.00014 11.648h50.816l-.0001-8.2661 55.017 16.242-47.336 15.784c-2.4405.8137-2.4405.8137 2.1752 5.5521l38.528 39.552c2.304 2.432 5.2472 3.4557 8.4472 3.4557h43.776c1.536 0 2.304-1.0237 2.304-2.0477 0-.64-.2558-1.5357-.8958-2.0477l-35.328-36.224c13.696-2.048 24.959-10.24 24.959-24.704 0-13.184-11.648-22.271-27.136-22.271zm-1134.4 28.667 55.085 56.068c1.536 1.664 3.328 2.5599 5.632 2.5599h8.4485c2.048 0 3.8395-.8959 5.3755-2.5599l55.891-56.068h-17.231l-25.347 25.221-24.403-25.221zm156.66 0c-1.4371 4.6297-2.2382 9.6446-2.2382 14.981 0 25.344 17.791 43.648 41.983 43.648h89.856c2.304 0 3.4558-1.1517 3.4558-3.4557l.000384-8.1917c0-2.304-1.1518-3.4565-3.4557-3.4565h-59.905c-10.496 0-15.104-5.8876-15.104-23.296l.000041-13.952c0-2.3714.1247-4.4032.31568-6.2769zm149.51 0c-1.437 4.6296-2.2373 9.6447-2.2373 14.981 0 25.344 17.791 43.648 41.982 43.648h87.68c2.176 0 3.328-1.1517 3.328-3.4557l.00038-8.1917c0-2.304-1.1519-3.4565-3.3279-3.4565h-57.728c-10.496 0-15.104-5.8876-15.104-23.296l.000041-13.952c0-2.3714.1247-4.4032.31568-6.2769zm180.17 0 .00027 56.964c0 1.152.76644 1.664 2.4304 1.664h45.953c1.536 0 2.3041-.512 2.3041-1.664l-.00027-56.964zm97.445 0c-1.4181 4.6177-2.2063 9.6292-2.2063 14.981 0 24.704 17.151 43.648 42.111 43.648h62.72c25.216 0 42.24-19.072 42.24-43.648 0-5.3282-.80638-10.345-2.2562-14.981h-49.132c.19097 1.8736.31559 3.9055.31559 6.2769l-.00005 13.952c0 17.408-4.6078 23.296-15.104 23.296h-17.407c-9.728 0-14.081-6.0156-14.081-23.296l.00005-13.952c0-2.3687.12806-4.3998.32149-6.2769zm160.87 0-.00013 55.173c0 2.304 1.1512 3.4557 3.4552 3.4557h43.904c2.304 0 3.4568-1.1517 3.4568-3.4557l.00012-55.173zm89.836 0c-1.8987 2.315-5.3966 3.5886-10.476 3.5886H539.6c-2.304 0-3.3282 1.1521-3.3282 3.3281l.00036 3.9678c0 2.304.76749 3.328 2.1755 4.736l38.528 39.552c2.304 2.432 5.2472 3.4557 8.4472 3.4557h43.776c1.536 0 2.305-1.0237 2.305-2.0477 0-.64-.2568-1.5357-.8968-2.0477l-35.328-36.224c11.522-1.7229 21.294-7.8127 24.115-18.309zm77.21 0-.00013 55.173c0 2.304 1.1524 3.4557 3.3284 3.4557h44.16c2.176 0 3.328-1.1517 3.328-3.4557l.00013-55.173zm69.829 0c-1.4371 4.6297-2.2382 9.6446-2.2382 14.981 0 25.344 17.791 43.648 41.983 43.648h89.856c2.304 0 3.4568-1.1517 3.4568-3.4557l.00039-8.1917c0-2.304-1.1527-3.4565-3.4567-3.4565h-59.904c-10.496 0-15.104-5.8876-15.104-23.296l.00004-13.952c0-2.3714.12471-4.4032.31568-6.2769zm149.45 0-.00013 55.173c0 2.304 1.1512 3.4557 3.4552 3.4557h43.904c2.304 0 3.4558-1.1517 3.4558-3.4557l.001-42.544.00003-12.629zm-907.18 3.5886c-2.304 0-3.456 1.1521-3.456 3.3281l.000309 8.3201c0 2.176 1.1511 3.3281 3.4551 3.3281h61.185c2.176 0 3.3276-.7678 3.3276-2.3038l.00082-10.369c0-1.536-1.1518-2.3038-3.3278-2.3038zm824.87 0c-2.304 0-3.4569 1.1521-3.4569 3.3281l.00031 8.3201c0 2.176 1.152 3.3281 3.456 3.3281h61.184c2.176 0 3.3286-.7678 3.3286-2.3038l.00082-10.369c0-1.536-1.1528-2.3038-3.3288-2.3038z" transform="matrix(2.0173 0 -1.2726 2.2043 2391.6 -3115.9)"/></svg>